<?xml version="1.0" encoding="utf-8"?>
<svg xmlns="http://www.w3.org/2000/svg" width="14.2222in" height="14.2222in" viewBox="0 0 1024 1024" xmlns:bx="https://boxy-svg.com">
  <defs>
    <bx:guide x="408.648" y="513.89" angle="0"/>
    <bx:guide x="444.394" y="614.003" angle="90"/>
    <bx:export>
      <bx:file format="png" href="#object-0"/>
    </bx:export>
  </defs>
  <g id="object-0" style="" transform="matrix(4.846128, 0, 0, 4.846128, -1980.360596, -1946.807007)">
    <path id="Selection #1" stroke-width="1" d="M 514 445 L 618 406 L 610 499 L 594.506 490.619 C 591.296 499.379 577.715 518.209 572.115 526.619 C 564.992 537.304 557.368 547.276 547.214 557.508 C 537.066 567.734 527.672 577.337 516.818 584.285 C 493.65 599.116 468.608 602.048 466.032 600 C 466.032 600 497.803 589.149 517.737 573.539 C 528.617 565.019 535.146 555.752 546.462 542.007 C 557.015 529.189 559.518 525.981 572.358 506.511 C 574.348 503.481 585.969 485.748 585.969 485.748 L 579.366 481.997 C 579.366 481.997 570.661 493.41 566.411 500 C 549.611 526.08 525.786 558.024 500 575.837 C 479.381 590.081 408.648 600 408.648 600 C 408.648 600 466.634 584.521 486.166 573.991 C 495.085 569.183 501.285 563.383 505.78 559.793 C 517.214 550.661 520.083 545.88 530.125 535.408 C 541.933 523.095 548.015 511.196 558.744 495.325 C 565.94 484.679 571 476.997 571 476.997 L 564.415 473.396 L 551.992 492.188 C 551.992 492.188 517.672 541.953 500 556.152 C 468.88 581.156 417.033 586.293 417.033 586.293 C 417.033 586.293 467.856 573.346 489.096 554.769 C 500.886 544.456 519.93 521.64 530.35 508 L 557.713 469.665 L 550.276 465.603 C 550.276 465.603 538.272 483.96 536.112 487.19 C 522.552 507.52 511.434 521.79 494.154 539.07 C 464.504 568.71 420.76 569.725 420.76 569.725 C 420.76 569.725 444.772 563.122 463.423 552.155 C 483.298 540.47 500.312 519.531 516 500 C 522.67 491.7 543.452 461.729 543.452 461.729 L 536.689 457.62 C 536.689 457.62 529.254 468.666 523.141 477.562 C 505.112 503.801 483.418 525.753 468.742 537.546 C 448.23 554.028 408.648 556.78 408.648 556.78 C 408.648 556.78 443.615 546.901 457.142 536.276 C 467.591 528.068 483.816 512.248 494.187 500 C 505.508 486.629 514.859 472.909 514.859 472.909 C 514.859 472.909 511.888 477.17 529 453 L 514 445 Z" style="fill: rgb(255, 255, 255);">
      <title>arrow</title>
    </path>
    <g style="">
      <title>cpu</title>
      <ellipse style="fill: rgb(255, 255, 255);" cx="451.739" cy="450.653" rx="8.478" ry="8.478"/>
      <path id="Selection #-2" stroke-width="1" d="M 434.98 541 C 434.98 541 432.91 448.76 434.98 442 C 437.68 432.88 444.85 432.01 453 432 L 529 433 L 501 444 L 521 456 C 521 456 488.85 499.6 465 520.13 C 457.21 526.84 444.5 537.49 434.98 541 Z" style="paint-order: fill; fill: rgb(255, 255, 255);"/>
      <path id="Selection #-2" stroke-width="1" d="M 590 511 C 590 511 592.49 576.23 588.91 581.9 C 585.62 587.11 580.43 586.99 575 587 L 525 587 L 538 574.92 C 538 574.92 548.638 566.07 560.03 553.674 C 574.012 538.459 580.67 525 580.67 525 L 590 511 Z" style="fill-rule: nonzero; fill: rgb(255, 255, 255);"/>
    </g>
    <g style="">
      <title>pins</title>
      <path id="Selection #-2" stroke-width="1" d="M 491 611.436 C 491 611.436 498 607.436 498 607.436 C 498 607.436 498 611.436 498 611.436 C 498 611.436 491 611.436 491 611.436 Z" style="fill: rgb(255, 255, 255);"/>
      <path id="Selection #-2" stroke-width="1" d="M 410.773 459.074 C 410.773 459.074 429.773 459.074 429.773 459.074 C 429.773 459.074 429.773 467.074 429.773 467.074 C 429.773 467.074 410.773 467.074 410.773 467.074 C 410.773 467.074 410.773 459.074 410.773 459.074 Z" style="fill: rgb(255, 255, 255);"/>
      <path id="path-1" stroke-width="1" d="M 410.773 475.359 C 410.773 475.359 429.773 475.359 429.773 475.359 C 429.773 475.359 429.773 483.359 429.773 483.359 C 429.773 483.359 410.773 483.359 410.773 483.359 C 410.773 483.359 410.773 475.359 410.773 475.359 Z" style="fill: rgb(255, 255, 255);"/>
      <path id="path-2" stroke-width="1" d="M 410.773 491.644 C 410.773 491.644 429.773 491.644 429.773 491.644 C 429.773 491.644 429.773 499.644 429.773 499.644 C 429.773 499.644 410.773 499.644 410.773 499.644 C 410.773 499.644 410.773 491.644 410.773 491.644 Z" style="fill: rgb(255, 255, 255);"/>
      <path id="path-3" stroke-width="1" d="M 410.773 507.929 C 410.773 507.929 429.773 507.929 429.773 507.929 C 429.773 507.929 429.773 515.929 429.773 515.929 C 429.773 515.929 410.773 515.929 410.773 515.929 C 410.773 515.929 410.773 507.929 410.773 507.929 Z" style="fill: rgb(255, 255, 255);"/>
      <path id="path-4" stroke-width="1" d="M 410.773 524.215 C 410.773 524.215 429.773 524.215 429.773 524.215 C 429.773 524.215 429.773 532.215 429.773 532.215 C 429.773 532.215 410.773 532.215 410.773 532.215 C 410.773 532.215 410.773 524.215 410.773 524.215 Z" style="fill: rgb(255, 255, 255);"/>
      <path id="path-5" stroke-width="1" d="M 559.738 597.062 C 559.738 597.062 578.738 597.062 578.738 597.062 C 578.738 597.062 578.738 605.062 578.738 605.062 C 578.738 605.062 559.738 605.062 559.738 605.062 C 559.738 605.062 559.738 597.062 559.738 597.062 Z" style="transform-box: fill-box; transform-origin: 50% 50%; fill: rgb(255, 255, 255);" transform="matrix(0, -1, 1, 0, 0.000019, 0.000017)"/>
      <path id="path-6" stroke-width="1" d="M 540.928 597.062 C 540.928 597.062 559.928 597.062 559.928 597.062 C 559.928 597.062 559.928 605.062 559.928 605.062 C 559.928 605.062 540.928 605.062 540.928 605.062 C 540.928 605.062 540.928 597.062 540.928 597.062 Z" style="stroke-width: 1; transform-origin: 550.428px 601.062px; fill: rgb(255, 255, 255);" transform="matrix(0, -1, 1, 0, 0.000048, 0.00001)"/>
      <path id="path-7" stroke-width="1" d="M 522.118 597.062 C 522.118 597.062 541.118 597.062 541.118 597.062 C 541.118 597.062 541.118 605.062 541.118 605.062 C 541.118 605.062 522.118 605.062 522.118 605.062 C 522.118 605.062 522.118 597.062 522.118 597.062 Z" style="stroke-width: 1; transform-origin: 531.618px 601.062px; fill: rgb(255, 255, 255);" transform="matrix(0, -1, 1, 0, 0.000022, -0.000016)"/>
      <path id="path-8" stroke-width="1" d="M 503.309 597.936 C 503.309 597.936 516.95 597.936 516.95 597.936 C 516.95 597.936 517.693 600.064 519.032 602.064 C 520.372 604.064 522.309 605.936 522.309 605.936 C 522.309 605.936 503.309 605.936 503.309 605.936 C 503.309 605.936 503.309 597.936 503.309 597.936 Z" style="stroke-width: 1; transform-box: fill-box; transform-origin: 50% 50%; fill: rgb(255, 255, 255);" transform="matrix(0, -1, 1, 0, -0.000015, -0.000006)"/>
      <path id="path-13" stroke-width="1" d="M 494.692 413.766 C 494.692 413.766 513.692 413.766 513.692 413.766 C 513.692 413.766 513.692 421.766 513.692 421.766 C 513.692 421.766 494.692 421.766 494.692 421.766 C 494.692 421.766 494.692 413.766 494.692 413.766 Z" style="stroke-width: 1; transform-origin: 504.192px 417.766px; fill: rgb(255, 255, 255);" transform="matrix(0, -1, 1, 0, 0.000011, 0.000034)"/>
      <path id="path-14" stroke-width="1" d="M 475.882 413.765 C 475.882 413.765 494.882 413.765 494.882 413.765 C 494.882 413.765 494.882 421.765 494.882 421.765 C 494.882 421.765 475.882 421.765 475.882 421.765 C 475.882 421.765 475.882 413.765 475.882 413.765 Z" style="stroke-width: 1; transform-origin: 485.382px 417.765px; fill: rgb(255, 255, 255);" transform="matrix(0, -1, 1, 0, 0.000031, -0.000001)"/>
      <path id="path-15" stroke-width="1" d="M 457.072 413.765 C 457.072 413.765 476.072 413.765 476.072 413.765 C 476.072 413.765 476.072 421.765 476.072 421.765 C 476.072 421.765 457.072 421.765 457.072 421.765 C 457.072 421.765 457.072 413.765 457.072 413.765 Z" style="stroke-width: 1; transform-origin: 466.572px 417.765px; fill: rgb(255, 255, 255);" transform="matrix(0, -1, 1, 0, 0.000024, -0.000008)"/>
      <path id="path-9" stroke-width="1" d="M 597 522.333 C 597 522.333 616 522.333 616 522.333 C 616 522.333 616 530.333 616 530.333 C 616 530.333 597 530.333 597 530.333 C 597 530.333 597 522.333 597 522.333 Z" style="fill: rgb(255, 255, 255);"/>
      <path id="path-10" stroke-width="1" d="M 597 539.235 C 597 539.235 616 539.235 616 539.235 C 616 539.235 616 547.235 616 547.235 C 616 547.235 597 547.235 597 547.235 C 597 547.235 597 539.235 597 539.235 Z" style="fill: rgb(255, 255, 255);"/>
      <path id="path-11" stroke-width="1" d="M 597 556.136 C 597 556.136 616 556.136 616 556.136 C 616 556.136 616 564.136 616 564.136 C 616 564.136 597 564.136 597 564.136 C 597 564.136 597 556.136 597 556.136 Z" style="fill: rgb(255, 255, 255);"/>
      <path id="path-12" stroke-width="1" d="M 597 513.431 L 616 505.431 L 616 513.431 L 597 513.431 Z" style="fill: rgb(255, 255, 255);"/>
    </g>
  </g>
</svg>